<svg width="64" height="64" viewBox="0 0 64 64" fill="none" xmlns="http://www.w3.org/2000/svg">
  <defs>
    <linearGradient id="gradient1" x1="0%" y1="0%" x2="100%" y2="100%">
      <stop offset="0%" style="stop-color:#667eea;stop-opacity:1" />
      <stop offset="100%" style="stop-color:#764ba2;stop-opacity:1" />
    </linearGradient>
    <linearGradient id="gradient2" x1="0%" y1="0%" x2="100%" y2="100%">
      <stop offset="0%" style="stop-color:#f093fb;stop-opacity:1" />
      <stop offset="100%" style="stop-color:#f5576c;stop-opacity:1" />
    </linearGradient>
  </defs>
  
  <!-- Background Circle -->
  <circle cx="32" cy="32" r="30" fill="url(#gradient1)" stroke="#fff" stroke-width="2"/>
  
  <!-- Globe Icon -->
  <circle cx="32" cy="32" r="20" fill="none" stroke="#fff" stroke-width="2"/>
  <path d="M12 32h40M32 12c5.5 0 10 4.5 10 10s-4.5 10-10 10-10-4.5-10-10 4.5-10 10-10z" stroke="#fff" stroke-width="2" fill="none"/>
  <path d="M32 12c-5.5 0-10 4.5-10 10s4.5 10 10 10" stroke="#fff" stroke-width="2" fill="none"/>
  
  <!-- AI Brain Icon -->
  <circle cx="32" cy="24" r="6" fill="url(#gradient2)"/>
  <path d="M26 24c0-3.3 2.7-6 6-6s6 2.7 6 6" stroke="#fff" stroke-width="1.5" fill="none"/>
  <circle cx="29" cy="22" r="1" fill="#fff"/>
  <circle cx="35" cy="22" r="1" fill="#fff"/>
  
  <!-- DNS Lines -->
  <path d="M20 40h24M20 44h24M20 48h24" stroke="#fff" stroke-width="1.5" stroke-linecap="round"/>
  
  <!-- Connection Dots -->
  <circle cx="20" cy="40" r="2" fill="#fff"/>
  <circle cx="44" cy="40" r="2" fill="#fff"/>
  <circle cx="20" cy="44" r="2" fill="#fff"/>
  <circle cx="44" cy="44" r="2" fill="#fff"/>
  <circle cx="20" cy="48" r="2" fill="#fff"/>
  <circle cx="44" cy="48" r="2" fill="#fff"/>
</svg>